<?xml version="1.0" encoding="UTF-8" standalone="no"?>
<!-- Created with Inkscape (http://www.inkscape.org/) -->

<svg
   width="100mm"
   height="100mm"
   viewBox="0 0 100 100"
   version="1.1"
   id="svg1"
   xmlns="http://www.w3.org/2000/svg"
   xmlns:svg="http://www.w3.org/2000/svg">
  <defs
     id="defs1" />
  <path
     id="rect1"
     style="fill:#dfdfe2;stroke-width:0.264583;fill-opacity:1"
     d="M 7.4998006 2.5001058 A 5 5 0 0 0 2.5001058 7.4998006 L 2.5001058 92.49978 A 5 5 0 0 0 7.4998006 97.499992 L 92.49978 97.499992 A 5 5 0 0 0 97.499992 92.49978 L 97.499992 7.4998006 A 5 5 0 0 0 92.49978 2.5001058 L 7.4998006 2.5001058 z M 50.000049 9.9999064 A 40 40 0 0 1 90.000191 50.000049 A 40 40 0 0 1 50.000049 90.000191 A 40 40 0 0 1 9.9999064 50.000049 A 40 40 0 0 1 50.000049 9.9999064 z " />
</svg>
